<?xml version="1.0" encoding="UTF-8"?>
<svg id="Layer_1" xmlns="http://www.w3.org/2000/svg" version="1.1" viewBox="0 0 32 32">
  <!-- Generator: Adobe Illustrator 29.8.3, SVG Export Plug-In . SVG Version: 2.1.1 Build 3)  -->
  <defs>
    <style>
      .st0 {
        fill: none;
      }

      .st1 {
        fill: #077b76;
      }

      .st2 {
        fill: #fff;
      }

      .st3 {
        fill: #8e6f2a;
      }

      .st4 {
        fill: #75bca8;
      }

      .st5 {
        fill: #d2c298;
      }
    </style>
  </defs>
  <path class="st2" d="M16.37,20.81s.02,0,.03-.01c0,0-.02-.01-.03-.02,0,0,0,.02,0,.03Z"/>
  <path class="st0" d="M17.5,21.4c-.18-.11-.56-.32-1.11-.6,0,0-.02,0-.03.01.16,2.93.9,5.64,1.53,7.48,2.63,0,5.27.02,7.9.02-1.82-2.11-4.56-4.79-8.29-6.91Z"/>
  <path class="st1" d="M16.39,20.8c.54.28.92.49,1.11.6,3.73,2.13,6.48,4.81,8.29,6.91,1.49,0,2.98,0,4.47.01-1.9-3.31-3.8-6.63-5.7-9.94-1.41.21-3,.54-4.71,1.08-.46.15-1.75.57-3.46,1.34Z"/>
  <path class="st5" d="M12.39,19.02c0,1.28.08,2.54.21,3.75.42-.25.85-.48,1.28-.72.88-.49,1.72-.9,2.48-1.25,0,0,0-.02,0-.03-.91-.47-2.28-1.12-3.97-1.76Z"/>
  <path class="st4" d="M17.87,13.19c-.43.67-1.25,2.14-1.48,4.99-.07.88-.07,1.75-.03,2.6,0,0,.02.01.03.02,1.71-.77,3-1.19,3.46-1.34,1.71-.54,3.3-.87,4.71-1.08-.09-.15-.17-.3-.26-.45-1.37-2.4-2.75-4.79-4.12-7.19-.66.48-1.56,1.27-2.32,2.44Z"/>
  <path class="st4" d="M12.61,22.78c-.14-1.22-.22-2.48-.21-3.75-.23-.09-.47-.18-.72-.26-1.45-.52-2.73-.88-3.77-1.14-.52.9-1.05,1.8-1.57,2.7-1.54,2.64-3.07,5.28-4.61,7.92,1.66,0,3.33,0,4.99.01.27-.42.63-.95,1.09-1.53,1.5-1.85,3.12-2.97,4.8-3.95Z"/>
  <path class="st3" d="M13.89,22.06c-.43.24-.86.47-1.28.72.01.1.02.21.04.31-.01-.1-.02-.21-.04-.31-1.68.98-3.3,2.09-4.8,3.95-.46.57-.82,1.1-1.09,1.53.04,0,.07,0,.11,0,3.69.01,7.37.02,11.06.03-.62-1.84-1.37-4.54-1.53-7.48-.76.34-1.6.76-2.48,1.25Z"/>
  <path class="st3" d="M14.51,9.77c-.6.97-1.72,3.08-2.03,7.17-.05.7-.08,1.39-.08,2.08,1.69.64,3.06,1.29,3.97,1.76-.05-.85-.04-1.73.03-2.6.23-2.84,1.05-4.31,1.48-4.99.76-1.17,1.66-1.96,2.32-2.44-.85-1.48-1.7-2.96-2.55-4.44-.91.7-2.12,1.81-3.14,3.47Z"/>
  <path class="st1" d="M12.39,19.02c0-.69.03-1.38.08-2.08.31-4.09,1.44-6.2,2.03-7.17,1.02-1.66,2.23-2.77,3.14-3.47-.52-.91-1.05-1.83-1.57-2.74-2.72,4.68-5.44,9.37-8.17,14.05,1.04.26,2.32.62,3.77,1.14.25.09.48.18.72.26Z"/>
</svg>