<?xml version="1.0" encoding="UTF-8"?>
<svg id="Layer_1" data-name="Layer 1" xmlns="http://www.w3.org/2000/svg" viewBox="0 0 111.49 83.64">
  <defs>
    <style>
      .cls-1 {
        stroke-width: 3px;
      }

      .cls-1, .cls-2 {
        fill: none;
        stroke: #fff;
      }

      .cls-1, .cls-2, .cls-3, .cls-4 {
        stroke-miterlimit: 10;
      }

      .cls-2 {
        stroke-width: 1.5px;
      }

      .cls-5 {
        font-family: BigCaslon-Medium, 'Big Caslon';
        font-size: 10.89px;
        font-weight: 500;
      }

      .cls-5, .cls-3 {
        fill: #fff;
      }

      .cls-3 {
        stroke: #71625a;
      }

      .cls-4 {
        fill: #8b6b4d;
        stroke: #231f20;
      }
    </style>
  </defs>
  <ellipse class="cls-1" cx="18.46" cy="37.61" rx="9.6" ry="8.9" transform="translate(-21.68 49.6) rotate(-80.5)"/>
  <path class="cls-3" d="M17.88,23.65h32.92v23.19c0,7.9-6.41,14.31-14.31,14.31h-5.19c-7.41,0-13.42-6.01-13.42-13.42v-24.08h0Z" transform="translate(7.47 -5.08) rotate(9.5)"/>
  <ellipse class="cls-3" cx="37.44" cy="23.91" rx="2.62" ry="16.46" transform="translate(7.68 56.88) rotate(-80.5)"/>
  <ellipse class="cls-1" cx="89.27" cy="36.29" rx="8.9" ry="9.6" transform="translate(-5.48 18.74) rotate(-11.63)"/>
  <path class="cls-3" d="M70.53,22.92h5.19c7.9,0,14.31,6.41,14.31,14.31v23.19h-32.92v-24.08c0-7.41,6.01-13.42,13.42-13.42Z" transform="translate(154.04 67.65) rotate(168.37)"/>
  <ellipse class="cls-3" cx="69.79" cy="23.3" rx="16.46" ry="2.62" transform="translate(-3.26 14.55) rotate(-11.63)"/>
  <g>
    <path class="cls-2" d="M53.72,3.72c-1.08-1.73-3.02-2.96-5.07-2.97s-4.08,1.33-4.7,3.27c-.26.81-.28,1.67-.21,2.51.11,1.31.44,2.6.97,3.8,1.51,3.4,4.53,5.95,6.08,9.33"/>
    <path class="cls-2" d="M53.71,3.58c1.14-1.69,3.13-2.85,5.17-2.78s4.03,1.47,4.58,3.44c.23.81.22,1.68.11,2.52-.16,1.3-.54,2.58-1.11,3.76-1.63,3.35-4.75,5.78-6.41,9.11"/>
    <path class="cls-2" d="M50.71,19.47c.19.49.39,1.02.3,1.54-.12.74-.8,1.3-1.54,1.45"/>
    <path class="cls-2" d="M56.04,19.63c-.19.49-.39,1.02-.3,1.54.12.74.8,1.3,1.54,1.45"/>
  </g>
  <ellipse class="cls-4" cx="37.26" cy="24.78" rx="1.73" ry="14.47" transform="translate(6.67 57.44) rotate(-80.5)"/>
  <ellipse class="cls-4" cx="69.92" cy="23.91" rx="14.47" ry="1.73" transform="translate(-3.38 14.59) rotate(-11.63)"/>
  <text class="cls-5" transform="translate(10.19 72.99)"><tspan x="0" y="0">BONDS &amp; BREW</tspan></text>
</svg>